<mxfile host="app.diagrams.net" modified="2023-05-31T07:34:03.980Z" agent="Mozilla/5.0 (Macintosh; Intel Mac OS X 10_15_7) AppleWebKit/537.36 (KHTML, like Gecko) Chrome/113.0.0.0 Safari/537.36" version="21.3.6" etag="QUZZMGCpbS_Vy4mcvwC7" type="github">
  <diagram name="第 1 页" id="rfL0uLb-6laD0B3KqAi_">
    <mxGraphModel>
      <root>
        <mxCell id="0" />
        <mxCell id="1" parent="0" />
      </root>
    </mxGraphModel>
  </diagram>
</mxfile>
